<svg width="20" height="17" viewBox="0 0 20 17" fill="none" xmlns="http://www.w3.org/2000/svg">
<g id="fluent:slide-multiple-20-regular">
<path id="Vector" d="M3.91494 2.65843C3.40849 2.65843 2.92278 2.83323 2.56467 3.14438C2.20656 3.45553 2.00537 3.87753 2.00537 4.31756V10.5393C2.00537 10.9793 2.20656 11.4013 2.56467 11.7125C2.92278 12.0236 3.40849 12.1984 3.91494 12.1984H4.86972V12.6132C4.86972 13.0532 5.0709 13.4752 5.42902 13.7864C5.78713 14.0975 6.27284 14.2723 6.77928 14.2723H15.3723C15.8788 14.2723 16.3645 14.0975 16.7226 13.7864C17.0807 13.4752 17.2819 13.0532 17.2819 12.6132V6.80626C17.2819 6.36623 17.0807 5.94422 16.7226 5.63308C16.3645 5.32193 15.8788 5.14713 15.3723 5.14713H14.4175V4.31756C14.4175 3.87753 14.2164 3.45553 13.8582 3.14438C13.5001 2.83323 13.0144 2.65843 12.508 2.65843H3.91494ZM13.4628 5.14713H6.77928C6.27284 5.14713 5.78713 5.32193 5.42902 5.63308C5.0709 5.94422 4.86972 6.36623 4.86972 6.80626V11.3689H3.91494C3.66171 11.3689 3.41886 11.2815 3.2398 11.1259C3.06075 10.9703 2.96015 10.7593 2.96015 10.5393V4.31756C2.96015 4.09755 3.06075 3.88655 3.2398 3.73097C3.41886 3.5754 3.66171 3.488 3.91494 3.488H12.508C12.7612 3.488 13.0041 3.5754 13.1831 3.73097C13.3622 3.88655 13.4628 4.09755 13.4628 4.31756V5.14713ZM5.8245 6.80626C5.8245 6.58624 5.9251 6.37524 6.10415 6.21967C6.28321 6.06409 6.52606 5.97669 6.77928 5.97669H15.3723C15.6256 5.97669 15.8684 6.06409 16.0475 6.21967C16.2265 6.37524 16.3271 6.58624 16.3271 6.80626V12.6132C16.3271 12.8332 16.2265 13.0442 16.0475 13.1998C15.8684 13.3554 15.6256 13.4428 15.3723 13.4428H6.77928C6.52606 13.4428 6.28321 13.3554 6.10415 13.1998C5.9251 13.0442 5.8245 12.8332 5.8245 12.6132V6.80626Z" fill="url(#paint0_linear_88_7427)"/>
</g>
<defs>
<linearGradient id="paint0_linear_88_7427" x1="9.64363" y1="2.65843" x2="9.64363" y2="14.2723" gradientUnits="userSpaceOnUse">
<stop stop-color="#FFB800"/>
<stop offset="1" stop-color="#EA4335"/>
</linearGradient>
</defs>
</svg>
