<svg width="20" height="18" viewBox="0 0 20 18" fill="none" xmlns="http://www.w3.org/2000/svg">
<g id="fluent:folder-20-regular">
<path id="Vector" d="M6.93873 3.3842C7.19652 3.3842 7.44954 3.44476 7.66914 3.55841L7.79804 3.63307L9.32569 4.62855H14.8949C15.4741 4.62848 16.0336 4.81139 16.4691 5.1432C16.9046 5.47501 17.1863 5.93308 17.2618 6.43202L17.2771 6.56641L17.2819 6.70246V12.9242C17.282 13.4507 17.0516 13.9576 16.6374 14.342C16.2232 14.7263 15.6562 14.9594 15.0515 14.994L14.8949 14.9981H4.39233C3.78631 14.9982 3.20294 14.798 2.76056 14.4381C2.31818 14.0783 2.0499 13.5857 2.01015 13.0602L2.00537 12.9242V5.45811C2.00528 4.93157 2.2357 4.42472 2.64989 4.04035C3.06408 3.65598 3.63103 3.42289 4.23574 3.38835L4.39233 3.3842H6.93873ZM7.88397 6.73067C7.64863 6.94551 7.33272 7.08025 6.99316 7.11061L6.84707 7.11724L2.96015 7.11642V12.9242C2.96017 13.2335 3.09279 13.5318 3.33216 13.7608C3.57152 13.9897 3.90046 14.133 4.25484 14.1627L4.39233 14.1685H14.8949C15.2508 14.1686 15.5939 14.0534 15.8575 13.8456C16.121 13.6378 16.286 13.3522 16.3204 13.0445L16.3271 12.9242V6.70246C16.3271 6.39326 16.1946 6.09513 15.9555 5.86617C15.7163 5.63721 15.3876 5.49381 15.0334 5.46392L14.8949 5.45811H9.27795L7.88397 6.73067ZM6.93969 4.21377H4.39233C4.03631 4.21378 3.69305 4.32901 3.42951 4.53698C3.16596 4.74495 3.00102 5.03075 2.96684 5.33866L2.96015 5.45811V6.28685L6.84707 6.28768C6.95113 6.2878 7.05238 6.25838 7.13542 6.20389L7.19271 6.1591L8.39669 5.05992L7.22517 4.29672C7.16335 4.25664 7.09128 4.23017 7.01512 4.21957L6.93873 4.21377H6.93969Z" fill="url(#paint0_linear_88_7430)"/>
</g>
<defs>
<linearGradient id="paint0_linear_88_7430" x1="9.64363" y1="3.3842" x2="9.64363" y2="14.9981" gradientUnits="userSpaceOnUse">
<stop stop-color="#FFB800"/>
<stop offset="1" stop-color="#EA4335"/>
</linearGradient>
</defs>
</svg>
