<svg width="20" height="18" viewBox="0 0 20 18" fill="none" xmlns="http://www.w3.org/2000/svg">
<g id="fluent:image-20-regular">
<path id="Vector" d="M13.4626 6.84353C13.4626 7.00694 13.4255 7.16875 13.3536 7.31972C13.2816 7.4707 13.1761 7.60787 13.0431 7.72342C12.9101 7.83897 12.7522 7.93063 12.5785 7.99316C12.4047 8.05569 12.2185 8.08788 12.0304 8.08788C11.8423 8.08788 11.6561 8.05569 11.4823 7.99316C11.3086 7.93063 11.1507 7.83897 11.0177 7.72342C10.8847 7.60787 10.7792 7.4707 10.7072 7.31972C10.6353 7.16875 10.5982 7.00694 10.5982 6.84353C10.5982 6.51351 10.7491 6.19701 11.0177 5.96365C11.2863 5.73028 11.6506 5.59918 12.0304 5.59918C12.4102 5.59918 12.7745 5.73028 13.0431 5.96365C13.3117 6.19701 13.4626 6.51351 13.4626 6.84353ZM12.5078 6.84353C12.5078 6.73353 12.4575 6.62802 12.368 6.55024C12.2784 6.47245 12.157 6.42875 12.0304 6.42875C11.9038 6.42875 11.7824 6.47245 11.6928 6.55024C11.6033 6.62802 11.553 6.73353 11.553 6.84353C11.553 6.95354 11.6033 7.05904 11.6928 7.13683C11.7824 7.21461 11.9038 7.25832 12.0304 7.25832C12.157 7.25832 12.2784 7.21461 12.368 7.13683C12.4575 7.05904 12.5078 6.95354 12.5078 6.84353ZM2.95996 5.59918C2.95996 4.93914 3.26174 4.30613 3.79891 3.83941C4.33608 3.37269 5.06464 3.11049 5.82431 3.11049H13.4626C14.2222 3.11049 14.9508 3.37269 15.488 3.83941C16.0251 4.30613 16.3269 4.93914 16.3269 5.59918V12.2357C16.3269 12.8957 16.0251 13.5288 15.488 13.9955C14.9508 14.4622 14.2222 14.7244 13.4626 14.7244H5.82431C5.06464 14.7244 4.33608 14.4622 3.79891 13.9955C3.26174 13.5288 2.95996 12.8957 2.95996 12.2357V5.59918ZM5.82431 3.94005C5.31786 3.94005 4.83216 4.11485 4.47404 4.426C4.11593 4.73715 3.91474 5.15916 3.91474 5.59918V12.2357C3.91474 12.5451 4.01213 12.8347 4.18208 13.0819L8.63996 9.27582C8.90776 9.04732 9.2681 8.9193 9.64344 8.9193C10.0188 8.9193 10.3791 9.04732 10.6469 9.27582L15.1058 13.0819C15.2808 12.8258 15.3728 12.5335 15.3721 12.2357V5.59918C15.3721 5.15916 15.1709 4.73715 14.8128 4.426C14.4547 4.11485 13.969 3.94005 13.4626 3.94005H5.82431ZM5.82431 13.8948H13.4626C13.8158 13.8948 14.1452 13.8119 14.4288 13.6675L9.97761 9.86813C9.88838 9.79213 9.7684 9.74956 9.64344 9.74956C9.51848 9.74956 9.3985 9.79213 9.30926 9.86813L4.85807 13.6675C5.15097 13.817 5.48463 13.8955 5.82431 13.8948Z" fill="url(#paint0_linear_88_7433)"/>
</g>
<defs>
<linearGradient id="paint0_linear_88_7433" x1="9.64344" y1="3.11049" x2="9.64344" y2="14.7244" gradientUnits="userSpaceOnUse">
<stop stop-color="#FFB800"/>
<stop offset="1" stop-color="#EA4335"/>
</linearGradient>
</defs>
</svg>
