<svg width="20" height="18" viewBox="0 0 20 18" fill="none" xmlns="http://www.w3.org/2000/svg">
<g id="ph:projector-screen-chart-thin" clip-path="url(#clip0_88_7424)">
<path id="Vector" d="M6.958 10.0848V9.04784C6.958 8.97909 6.98943 8.91315 7.04539 8.86453C7.10134 8.81592 7.17723 8.7886 7.25636 8.7886C7.3355 8.7886 7.41139 8.81592 7.46734 8.86453C7.5233 8.91315 7.55473 8.97909 7.55473 9.04784V10.0848C7.55473 10.1536 7.5233 10.2195 7.46734 10.2681C7.41139 10.3167 7.3355 10.344 7.25636 10.344C7.17723 10.344 7.10134 10.3167 7.04539 10.2681C6.98943 10.2195 6.958 10.1536 6.958 10.0848ZM9.64332 10.344C9.72245 10.344 9.79835 10.3167 9.8543 10.2681C9.91026 10.2195 9.94169 10.1536 9.94169 10.0848V8.52936C9.94169 8.46061 9.91026 8.39467 9.8543 8.34605C9.79835 8.29744 9.72245 8.27013 9.64332 8.27013C9.56419 8.27013 9.4883 8.29744 9.43234 8.34605C9.37639 8.39467 9.34495 8.46061 9.34495 8.52936V10.0848C9.34495 10.1536 9.37639 10.2195 9.43234 10.2681C9.4883 10.3167 9.56419 10.344 9.64332 10.344ZM12.0303 10.344C12.1094 10.344 12.1853 10.3167 12.2413 10.2681C12.2972 10.2195 12.3286 10.1536 12.3286 10.0848V8.01089C12.3286 7.94213 12.2972 7.87619 12.2413 7.82758C12.1853 7.77896 12.1094 7.75165 12.0303 7.75165C11.9511 7.75165 11.8753 7.77896 11.8193 7.82758C11.7633 7.87619 11.7319 7.94213 11.7319 8.01089V10.0848C11.7319 10.1536 11.7633 10.2195 11.8193 10.2681C11.8753 10.3167 11.9511 10.344 12.0303 10.344ZM15.9091 5.67773V12.418H16.8042C16.8833 12.418 16.9592 12.4453 17.0152 12.4939C17.0711 12.5425 17.1026 12.6084 17.1026 12.6772C17.1026 12.7459 17.0711 12.8119 17.0152 12.8605C16.9592 12.9091 16.8833 12.9364 16.8042 12.9364H9.94169V14.5178C10.3039 14.582 10.6258 14.7608 10.8449 15.0196C11.064 15.2783 11.1648 15.5985 11.1276 15.9181C11.0905 16.2377 10.918 16.5339 10.6438 16.7493C10.3696 16.9647 10.013 17.084 9.64332 17.084C9.27362 17.084 8.91709 16.9647 8.64284 16.7493C8.3686 16.5339 8.19619 16.2377 8.15903 15.9181C8.12187 15.5985 8.22261 15.2783 8.44173 15.0196C8.66084 14.7608 8.98272 14.582 9.34495 14.5178V12.9364H2.48245C2.40332 12.9364 2.32743 12.9091 2.27147 12.8605C2.21552 12.8119 2.18408 12.7459 2.18408 12.6772C2.18408 12.6084 2.21552 12.5425 2.27147 12.4939C2.32743 12.4453 2.40332 12.418 2.48245 12.418H3.37756V5.67773H3.07919C2.84179 5.67773 2.61412 5.5958 2.44625 5.44995C2.27839 5.3041 2.18408 5.10628 2.18408 4.90002V3.86306C2.18408 3.6568 2.27839 3.45898 2.44625 3.31313C2.61412 3.16728 2.84179 3.08534 3.07919 3.08534H16.2075C16.4448 3.08534 16.6725 3.16728 16.8404 3.31313C17.0083 3.45898 17.1026 3.6568 17.1026 3.86306V4.90002C17.1026 5.10628 17.0083 5.3041 16.8404 5.44995C16.6725 5.5958 16.4448 5.67773 16.2075 5.67773H15.9091ZM9.64332 15.0103C9.46629 15.0103 9.29323 15.056 9.14603 15.1414C8.99883 15.2269 8.8841 15.3483 8.81635 15.4904C8.7486 15.6326 8.73087 15.7889 8.76541 15.9398C8.79995 16.0906 8.8852 16.2292 9.01038 16.338C9.13557 16.4468 9.29506 16.5208 9.46869 16.5508C9.64233 16.5808 9.8223 16.5654 9.98586 16.5066C10.1494 16.4477 10.2892 16.348 10.3876 16.2201C10.4859 16.0922 10.5384 15.9419 10.5384 15.7881C10.5384 15.5818 10.4441 15.384 10.2763 15.2381C10.1084 15.0923 9.88072 15.0103 9.64332 15.0103ZM15.3123 5.67773H3.9743V12.418H15.3123V5.67773ZM16.2075 5.15926C16.2866 5.15926 16.3625 5.13194 16.4184 5.08333C16.4744 5.03471 16.5058 4.96877 16.5058 4.90002V3.86306C16.5058 3.79431 16.4744 3.72837 16.4184 3.67975C16.3625 3.63113 16.2866 3.60382 16.2075 3.60382H3.07919C3.00006 3.60382 2.92417 3.63113 2.86821 3.67975C2.81226 3.72837 2.78082 3.79431 2.78082 3.86306V4.90002C2.78082 4.96877 2.81226 5.03471 2.86821 5.08333C2.92417 5.13194 3.00006 5.15926 3.07919 5.15926H16.2075Z" fill="url(#paint0_linear_88_7424)"/>
</g>
<defs>
<linearGradient id="paint0_linear_88_7424" x1="9.64332" y1="3.08534" x2="9.64332" y2="17.084" gradientUnits="userSpaceOnUse">
<stop stop-color="#FFB800"/>
<stop offset="1" stop-color="#EA4335"/>
</linearGradient>
<clipPath id="clip0_88_7424">
<rect width="19.0957" height="16.5913" fill="white" transform="translate(0.0957031 0.752136)"/>
</clipPath>
</defs>
</svg>
