<svg width="11" height="11" viewBox="0 0 11 11" fill="none" xmlns="http://www.w3.org/2000/svg">
<g id="Frame 1000002804">
<path id="Vector" d="M0.930267 4.00725C0.562249 4.24578 0.26579 4.55246 0.0408908 4.92729C0.0136303 4.98181 0 5.03633 0 5.09085C0 5.14537 0.0136303 5.1999 0.0408908 5.25442C0.26579 5.62925 0.562249 5.93593 0.930267 6.17446C1.0802 5.77918 1.28806 5.41798 1.55385 5.09085C1.28806 4.76373 1.0802 4.40252 0.930267 4.00725ZM6.17452 0.930211C5.93599 0.562194 5.6293 0.265735 5.25447 0.0408356C5.19995 0.013575 5.14373 -5.52759e-05 5.0858 -5.52759e-05C5.02787 -5.52759e-05 4.97505 0.013575 4.92735 0.0408356C4.55251 0.265735 4.24583 0.562194 4.0073 0.930211C4.40258 1.08014 4.76378 1.28801 5.09091 1.5538C5.41804 1.28801 5.77924 1.08014 6.17452 0.930211ZM10.1409 4.92729C9.91603 4.55246 9.61957 4.24578 9.25155 4.00725C9.10162 4.40252 8.89376 4.76373 8.62797 5.09085C8.89376 5.41798 9.10162 5.77918 9.25155 6.17446C9.61957 5.93593 9.91603 5.62925 10.1409 5.25442C10.1682 5.1999 10.1818 5.14537 10.1818 5.09085C10.1818 5.03633 10.1682 4.98181 10.1409 4.92729ZM4.0073 9.2515C4.24583 9.61951 4.55251 9.91597 4.92735 10.1409C4.98187 10.1681 5.03809 10.1818 5.09602 10.1818C5.15395 10.1818 5.20677 10.1681 5.25447 10.1409C5.6293 9.91597 5.93599 9.61951 6.17452 9.2515C5.77924 9.10156 5.41804 8.8937 5.09091 8.62791C4.76378 8.8937 4.40258 9.10156 4.0073 9.2515ZM7.65681 5.09085C8.1475 4.68195 8.48996 4.17251 8.68419 3.56256C8.87842 2.9526 8.89716 2.33413 8.74042 1.70714C8.72679 1.63899 8.69441 1.58106 8.6433 1.53335C8.59219 1.48565 8.53255 1.45498 8.4644 1.44135C7.84423 1.2846 7.22916 1.30334 6.6192 1.49757C6.00925 1.6918 5.49982 2.03426 5.09091 2.52495C4.682 2.03426 4.17257 1.6918 3.56261 1.49757C2.95266 1.30334 2.33759 1.2846 1.71742 1.44135C1.64926 1.45498 1.58963 1.48735 1.53852 1.53846C1.4874 1.58958 1.45503 1.64921 1.4414 1.71736C1.28465 2.33754 1.3034 2.9526 1.49763 3.56256C1.69186 4.17251 2.03432 4.68195 2.52501 5.09085C2.03432 5.49976 1.69186 6.00919 1.49763 6.61915C1.3034 7.2291 1.28465 7.84758 1.4414 8.47457C1.45503 8.54272 1.4874 8.60065 1.53852 8.64836C1.58963 8.69606 1.64926 8.72673 1.71742 8.74036C2.33759 8.89711 2.95266 8.87837 3.56261 8.68414C4.17257 8.4899 4.682 8.14744 5.09091 7.65675C5.40441 8.03159 5.78605 8.32293 6.23585 8.5308C6.68565 8.73866 7.1559 8.84259 7.64659 8.84259C7.92601 8.84259 8.19861 8.81192 8.4644 8.75058C8.53255 8.73014 8.59219 8.69436 8.6433 8.64325C8.69441 8.59213 8.73019 8.5325 8.75064 8.46435C8.90057 7.84417 8.87842 7.2291 8.68419 6.61915C8.48996 6.00919 8.1475 5.49976 7.65681 5.09085ZM6.17452 6.17446C5.95643 6.39255 5.69575 6.53226 5.39248 6.59359C5.08921 6.65493 4.79445 6.62596 4.50821 6.5067C4.22198 6.38743 3.99197 6.20002 3.81818 5.94445C3.6444 5.68888 3.5575 5.40435 3.5575 5.09085C3.5575 4.77736 3.6444 4.49283 3.81818 4.23726C3.99197 3.98169 4.22198 3.79427 4.50821 3.67501C4.79445 3.55574 5.08921 3.52678 5.39248 3.58812C5.69575 3.64945 5.95643 3.78916 6.17452 4.00725C6.37216 4.20489 6.50505 4.4349 6.5732 4.69728C6.64135 4.95966 6.64135 5.22205 6.5732 5.48443C6.50505 5.74681 6.37216 5.97682 6.17452 6.17446Z" fill="#FF0000"/>
</g>
</svg>
