<svg width="19" height="19" viewBox="0 0 19 19" fill="none" xmlns="http://www.w3.org/2000/svg">
<g id="&#240;&#159;&#166;&#134; icon &#34;pricetags outline&#34;">
<g id="Group">
<path id="Vector" d="M10.1887 17.4167C9.80644 17.4162 9.43965 17.2655 9.16748 16.9971L4.09289 11.9146C3.96267 11.7851 3.88151 11.6144 3.86331 11.4317L3.16664 4.02957C3.15598 3.91362 3.17102 3.79674 3.21071 3.68727C3.25039 3.5778 3.31374 3.47843 3.39623 3.39624C3.47841 3.31375 3.57778 3.25041 3.68725 3.21072C3.79673 3.17104 3.91361 3.15599 4.02956 3.16666L11.4316 3.86332C11.6144 3.88153 11.7851 3.96269 11.9146 4.09291L16.9971 9.16749C17.2663 9.43757 17.4175 9.8034 17.4175 10.1848C17.4175 10.5662 17.2663 10.932 16.9971 11.2021L11.2021 16.9971C10.9328 17.2651 10.5686 17.4159 10.1887 17.4167ZM5.43873 10.9962L10.1887 15.7462L15.77 10.165L11.02 5.41499L4.83706 4.83707L5.43873 10.9962Z" fill="#FAFAFA"/>
<path id="Vector_2" d="M8.31248 9.5C8.96832 9.5 9.49998 8.96834 9.49998 8.3125C9.49998 7.65666 8.96832 7.125 8.31248 7.125C7.65665 7.125 7.12498 7.65666 7.12498 8.3125C7.12498 8.96834 7.65665 9.5 8.31248 9.5Z" fill="#FAFAFA"/>
</g>
</g>
</svg>
