<svg width="62" height="62" viewBox="0 0 62 62" fill="none" xmlns="http://www.w3.org/2000/svg">
<g id="bxs:certification">
<g id="Vector" filter="url(#filter0_d_178_15843)">
<path d="M17.027 27.1368C17.0539 27.2385 17.1008 27.3339 17.1648 27.4174C17.2289 27.5008 17.3089 27.5707 17.4002 27.623L18.9294 28.5073V30.2686C18.9294 30.481 19.0138 30.6847 19.164 30.8349C19.3142 30.9851 19.518 31.0695 19.7304 31.0695H21.4918L22.3762 32.5993C22.4827 32.783 22.6576 32.9169 22.8627 32.9719C23.0678 33.0268 23.2863 32.9983 23.4703 32.8925L24.9995 32.009L26.5294 32.8933C26.7135 32.9991 26.932 33.0276 27.1371 32.9727C27.3421 32.9177 27.5171 32.7838 27.6236 32.6001L28.5071 31.0711H30.2686C30.481 31.0711 30.6847 30.9867 30.835 30.8365C30.9852 30.6863 31.0696 30.4826 31.0696 30.2702V28.5089L32.5987 27.6246C32.6899 27.5721 32.7698 27.5021 32.8339 27.4187C32.898 27.3352 32.945 27.24 32.9722 27.1384C32.9995 27.0367 33.0064 26.9307 32.9926 26.8264C32.9788 26.7221 32.9446 26.6216 32.8919 26.5305L32.0084 25.0007L32.8927 23.4717C32.9989 23.2877 33.0277 23.0691 32.9727 22.8639C32.9177 22.6587 32.7835 22.4838 32.5995 22.3776L31.0704 21.4933V19.732C31.0704 19.5196 30.986 19.3159 30.8358 19.1657C30.6855 19.0154 30.4818 18.9311 30.2694 18.9311H28.5079L27.6244 17.402C27.518 17.2183 27.3432 17.0842 27.1382 17.0288C27.0366 17.0013 26.9305 16.9942 26.8262 17.008C26.7218 17.0217 26.6212 17.056 26.5302 17.1089L24.9995 17.9923L23.4703 17.1081C23.3793 17.0553 23.2788 17.0209 23.1745 17.007C23.0702 16.9931 22.9642 16.9999 22.8625 17.0271C22.7609 17.0543 22.6656 17.1012 22.5821 17.1653C22.4987 17.2294 22.4287 17.3093 22.3762 17.4004L21.4918 18.9303H19.7304C19.518 18.9303 19.3142 19.0146 19.164 19.1649C19.0138 19.3151 18.9294 19.5188 18.9294 19.7312V21.4925L17.4002 22.3776C17.2166 22.4841 17.0826 22.6591 17.0278 22.8642C16.973 23.0693 17.0018 23.2878 17.1079 23.4717L17.9914 25.0007L17.1071 26.5297C17.0013 26.7136 16.9725 26.9318 17.027 27.1368Z" fill="#2EACE9"/>
<path d="M21.9437 32.8502L21.9433 32.8496L21.2033 31.5695H19.7304C19.3854 31.5695 19.0545 31.4325 18.8105 31.1885C18.5665 30.9445 18.4294 30.6136 18.4294 30.2686V28.7957L17.1518 28.0569C17.1515 28.0567 17.1511 28.0565 17.1508 28.0563C17.0024 27.9712 16.8724 27.8575 16.7683 27.7218C16.6639 27.5859 16.5876 27.4307 16.5437 27.265C16.4553 26.9325 16.5021 26.5785 16.6737 26.2803L16.6743 26.2794L17.4139 25.0006L16.675 23.7218L16.6747 23.7215C16.5025 23.4228 16.4558 23.0681 16.5448 22.7351C16.6338 22.4021 16.8512 22.1179 17.1494 21.945L17.1498 21.9448L18.4294 21.2042V19.7312C18.4294 19.3862 18.5665 19.0553 18.8105 18.8113C19.0545 18.5673 19.3854 18.4303 19.7304 18.4303H21.2033L21.9429 17.1509C21.943 17.1508 21.943 17.1506 21.9431 17.1505C22.0284 17.0025 22.1421 16.8727 22.2777 16.7687C22.4134 16.6645 22.5682 16.5882 22.7335 16.544L22.862 17.0252L22.7335 16.544C22.8987 16.4999 23.071 16.4888 23.2406 16.5114C23.41 16.534 23.5732 16.5897 23.721 16.6755C23.7212 16.6755 23.7213 16.6756 23.7214 16.6757L24.9997 17.4149L26.2791 16.6765C26.2793 16.6764 26.2795 16.6763 26.2797 16.6762C26.4277 16.5903 26.5912 16.5346 26.7609 16.5123C26.9307 16.4899 27.1032 16.5014 27.2685 16.5461C27.2686 16.5461 27.2687 16.5461 27.2688 16.5462L27.1382 17.0288C27.3432 17.0842 27.518 17.2183 27.6244 17.402L21.9437 32.8502ZM21.9437 32.8502C22.1166 33.1483 22.4005 33.3657 22.7333 33.4548C23.0661 33.544 23.4207 33.4977 23.7195 33.326L23.7205 33.3254M21.9437 32.8502L23.7205 33.3254M23.7205 33.3254L24.9994 32.5865L26.2792 33.3262L26.2803 33.3268M23.7205 33.3254L26.2803 33.3268M33.3257 23.7217L33.3255 23.722L32.5859 25.0009L33.3246 26.2801L33.3257 23.7217ZM33.3257 23.7217C33.4982 23.4229 33.545 23.0678 33.4557 22.7345C33.3664 22.4012 33.1483 22.1171 32.8495 21.9446L33.3257 23.7217ZM26.2803 33.3268C26.579 33.4985 26.9336 33.5448 27.2665 33.4556C27.5993 33.3665 27.8832 33.1491 28.0561 32.851L28.0565 32.8503M26.2803 33.3268L28.0565 32.8503M28.0565 32.8503L28.7957 31.5711M28.0565 32.8503L28.7957 31.5711M28.7957 31.5711H30.2686C30.6136 31.5711 30.9445 31.4341 31.1885 31.1901C31.4325 30.9461 31.5696 30.6152 31.5696 30.2702V28.7973L32.8483 28.0579C32.8484 28.0578 32.8485 28.0578 32.8486 28.0577C32.9966 27.9724 33.1264 27.8587 33.2304 27.7233C33.3346 27.5877 33.4109 27.4329 33.4552 27.2678C33.4994 27.1026 33.5107 26.9304 33.4883 26.7609C33.4659 26.5916 33.4104 26.4283 33.3249 26.2804L28.7957 31.5711Z" stroke="white"/>
</g>
<path id="Vector_2" d="M23.6193 28.1753L23.7975 28.3565L23.9758 28.1753L29.1782 22.8863L29.3507 22.711L29.1782 22.5357L28.4788 21.8247L28.3006 21.6435L28.1224 21.8247L23.7975 26.2215L21.8776 24.2696L21.6994 24.0884L21.5212 24.2696L20.8218 24.9806L20.6493 25.1559L20.8218 25.3312L23.6193 28.1753Z" fill="white" stroke="white" stroke-width="0.5"/>
</g>
<defs>
<filter id="filter0_d_178_15843" x="0" y="0" width="62" height="62" filterUnits="userSpaceOnUse" color-interpolation-filters="sRGB">
<feFlood flood-opacity="0" result="BackgroundImageFix"/>
<feColorMatrix in="SourceAlpha" type="matrix" values="0 0 0 0 0 0 0 0 0 0 0 0 0 0 0 0 0 0 127 0" result="hardAlpha"/>
<feOffset dx="6" dy="6"/>
<feGaussianBlur stdDeviation="11"/>
<feColorMatrix type="matrix" values="0 0 0 0 0.34375 0 0 0 0 0.4875 0 0 0 0 0.65625 0 0 0 0.31 0"/>
<feBlend mode="normal" in2="BackgroundImageFix" result="effect1_dropShadow_178_15843"/>
<feBlend mode="normal" in="SourceGraphic" in2="effect1_dropShadow_178_15843" result="shape"/>
</filter>
</defs>
</svg>
