<svg width="24" height="24" viewBox="0 0 24 24" fill="none" xmlns="http://www.w3.org/2000/svg">
<g id="ri:heart-line">
<path id="Vector" d="M12.001 4.529C13.1436 3.5062 14.6345 2.95987 16.1674 3.00228C17.7003 3.04468 19.1587 3.6726 20.243 4.757C21.3263 5.84019 21.9543 7.29675 21.9982 8.82809C22.0421 10.3594 21.4985 11.8496 20.479 12.993L11.999 21.485L3.521 12.993C2.50026 11.849 1.9562 10.3576 2.00054 8.82499C2.04487 7.29241 2.67422 5.83495 3.75939 4.75183C4.84456 3.66871 6.30321 3.04211 7.83586 3.00067C9.36852 2.95923 10.8589 3.5061 12.001 4.529ZM18.827 6.17C18.1046 5.44813 17.1333 5.03008 16.1124 5.00163C15.0916 4.97318 14.0985 5.33648 13.337 6.017L12.002 7.215L10.666 6.018C9.90767 5.33989 8.91946 4.9762 7.90247 5.00092C6.88547 5.02565 5.9161 5.43694 5.19162 6.1511C4.46714 6.86526 4.04199 7.82862 4.00267 8.84516C3.96336 9.8617 4.31284 10.855 4.98 11.623L12 18.654L19.02 11.624C19.6844 10.8594 20.0339 9.87124 19.9981 8.85898C19.9623 7.84671 19.5437 6.88572 18.827 6.17Z" fill="#545454"/>
</g>
</svg>
